<svg xmlns="http://www.w3.org/2000/svg" width="88" height="88" xmlns:v="https://vecta.io/nano"><circle fill="#001b36" stroke="#fc0" stroke-width="4.6" cx="44" cy="44" r="41.6"/><path fill="#fff" d="M10.651 50.49l6.453-6.823 3.876 3.578c-.703-5.221.54-9.518 3.73-12.89 1.694-1.791 3.538-3 5.533-3.626s4.147-.662 6.459-.106c-.352-2.628-.229-4.998.368-7.112a13.29 13.29 0 0 1 3.188-5.594c1.943-2.055 4.011-3.403 6.203-4.044s4.44-.556 6.744.255c1.693.609 3.894 2.165 6.603 4.665l18.15 16.756-7.001 7.402L54.73 27.973c-2.816-2.599-4.874-4.023-6.175-4.27-1.717-.302-3.248.258-4.594 1.681-.98 1.036-1.581 2.307-1.803 3.812s.095 3.032.951 4.579 2.621 3.555 5.294 6.023l13.632 12.586-7.001 7.402-15.557-14.362c-2.762-2.55-4.669-4.063-5.72-4.54s-2.034-.62-2.949-.428-1.821.761-2.718 1.709c-1.08 1.142-1.739 2.457-1.98 3.946s.041 2.974.844 4.455 2.567 3.48 5.293 5.997l13.793 12.734-7.001 7.402z"/></svg>