<svg xmlns="http://www.w3.org/2000/svg" height="141.25" width="138.75" xmlns:v="https://vecta.io/nano"><g fill="#f93208"><path d="M20.154 40.829C-7.995 68.451 6.497 101.84 14.42 112.76c35.254 41.954 92.792 25.339 111.89-5.907 4.761-8.203 22.554-53.467-23.976-78.009z"/><path d="M39.613 39.265l4.778-8.861 28.406-5.038 11.119 9.208z"/></g><path d="M39.436 8.57l8.968-5.283 6.757 15.479c3.792-6.323 13.79-16.316 24.939-4.668-4.728 1.264-7.516 3.855-7.74 8.477 15.145-4.17 31.343 3.213 33.539 9.091C94.948 27.351 78.204 42.043 64.128 34c.009 15.045-12.617 16.636-19.902 17.076 2.077-4.996 5.591-9.994 1.474-14.987-7.618 8.171-13.874 10.668-33.17 4.668 4.876-1.679 14.843-11.39 24.448-11.425-6.775-2.467-12.29-2.087-17.814-1.475 2.917-3.961 12.149-15.197 28.625-8.476z" fill="#02902e"/></svg>