<?xml version="1.0" encoding="iso-8859-1"?>
<!-- Uploaded to: SVG Repo, www.svgrepo.com, Generator: SVG Repo Mixer Tools -->
<!DOCTYPE svg PUBLIC "-//W3C//DTD SVG 1.1//EN" "http://www.w3.org/Graphics/SVG/1.1/DTD/svg11.dtd">
<svg fill="#000000" height="800px" width="800px" version="1.1" id="Capa_1" xmlns="http://www.w3.org/2000/svg" xmlns:xlink="http://www.w3.org/1999/xlink" 
	 viewBox="0 0 438 438" xml:space="preserve">
<g>
	<path d="M304.5,229.909h-190c-4.143,0-7.5,3.358-7.5,7.5v104c0,4.142,3.357,7.5,7.5,7.5h190c4.143,0,7.5-3.358,7.5-7.5v-104
		C312,233.267,308.643,229.909,304.5,229.909z M297,333.909H122v-89h175V333.909z"/>
	<path d="M434.949,216.371c-1.918-1.413-4.395-1.831-6.671-1.125L362,235.805v-30.242c0-11.49-7.593-21.24-18.024-24.496
		c26.595-16.424,44.357-45.838,44.357-79.325c0-51.372-41.794-93.167-93.166-93.167c-38.382,0-71.414,23.332-85.667,56.556
		c-14.253-33.224-47.285-56.556-85.667-56.556c-51.372,0-93.166,41.794-93.166,93.167c0,33.488,17.762,62.901,44.357,79.325
		c-8.342,2.604-14.864,9.363-17.144,17.841H7.5c-2.297,0-4.468,1.053-5.89,2.857c-1.422,1.804-1.939,4.16-1.403,6.394l12,50
		c0.81,3.372,3.825,5.75,7.293,5.75H57v109.346c0,14.146,11.509,25.654,25.654,25.654h45.025v23.016c0,4.142,3.357,7.5,7.5,7.5
		H283.82c4.143,0,7.5-3.358,7.5-7.5v-23.016h45.025c14.146,0,25.654-11.509,25.654-25.654v-30.242l66.278,20.56
		c0.728,0.226,1.477,0.337,2.221,0.337c1.583,0,3.146-0.501,4.45-1.462c1.918-1.414,3.051-3.655,3.051-6.038v-134
		C438,220.026,436.867,217.784,434.949,216.371z M295.167,23.576c43.101,0,78.166,35.065,78.166,78.167
		c0,43.101-35.065,78.167-78.166,78.167c-43.102,0-78.167-35.065-78.167-78.167C217,58.641,252.066,23.576,295.167,23.576z
		 M244.529,179.909h-70.058c15.421-10.024,27.705-24.483,35.029-41.556C216.825,155.426,229.108,169.884,244.529,179.909z
		 M45.667,101.742c0-43.101,35.065-78.167,78.166-78.167c43.102,0,78.167,35.065,78.167,78.167
		c0,43.101-35.065,78.167-78.167,78.167C80.733,179.909,45.667,144.843,45.667,101.742z M25.413,248.909l-8.4-35H57v35H25.413z
		 M276.32,414.424H142.68v-15.516H276.32V414.424z M347,373.255c0,5.875-4.779,10.654-10.654,10.654H82.654
		c-5.875,0-10.654-4.78-10.654-10.654V206.409v-0.846c0-5.875,4.779-10.654,10.654-10.654h253.691
		c5.875,0,10.654,4.78,10.654,10.654V373.255z M362,251.511l35.667-11.064v97.925L362,327.307V251.511z M423,346.23l-10.333-3.205
		V235.793L423,232.588V346.23z"/>
	<path d="M160,101.742c0-19.942-16.225-36.167-36.167-36.167S87.667,81.8,87.667,101.742s16.224,36.167,36.166,36.167
		S160,121.684,160,101.742z M102.667,101.742c0-11.671,9.495-21.167,21.166-21.167c11.672,0,21.167,9.495,21.167,21.167
		c0,11.671-9.495,21.167-21.167,21.167C112.162,122.909,102.667,113.413,102.667,101.742z"/>
	<path d="M295.167,129.909c15.531,0,28.166-12.635,28.166-28.167c0-15.531-12.635-28.167-28.166-28.167S267,86.211,267,101.742
		C267,117.273,279.636,129.909,295.167,129.909z M295.167,88.576c7.26,0,13.166,5.906,13.166,13.167
		c0,7.26-5.906,13.167-13.166,13.167c-7.261,0-13.167-5.906-13.167-13.167C282,94.482,287.906,88.576,295.167,88.576z"/>
</g>
</svg>