<svg xmlns="http://www.w3.org/2000/svg" fill="#000000" height="800" width="800" viewBox="0 0 438 438" xmlns:v="https://vecta.io/nano"><path d="M304.5 229.909h-190a7.5 7.5 0 0 0-7.5 7.5v104a7.5 7.5 0 0 0 7.5 7.5h190a7.5 7.5 0 0 0 7.5-7.5v-104a7.5 7.5 0 0 0-7.5-7.5zm-7.5 104H122v-89h175v89zm137.949-117.538a7.5 7.5 0 0 0-6.671-1.125L362 235.805v-30.242c0-11.49-7.593-21.24-18.024-24.496 26.595-16.424 44.357-45.838 44.357-79.325 0-51.372-41.794-93.167-93.166-93.167-38.382 0-71.414 23.332-85.667 56.556-14.253-33.224-47.285-56.556-85.667-56.556-51.372 0-93.166 41.794-93.166 93.167 0 33.488 17.762 62.901 44.357 79.325a25.76 25.76 0 0 0-17.144 17.841H7.5a7.5 7.5 0 0 0-7.293 9.251l12 50a7.5 7.5 0 0 0 7.293 5.75H57v109.346c0 14.146 11.509 25.654 25.654 25.654h45.025v23.016a7.5 7.5 0 0 0 7.5 7.5H283.82a7.5 7.5 0 0 0 7.5-7.5v-23.016h45.025c14.146 0 25.654-11.509 25.654-25.654v-30.242l66.278 20.56a7.49 7.49 0 0 0 2.221.337 7.5 7.5 0 0 0 7.501-7.5v-134a7.5 7.5 0 0 0-3.05-6.039zM295.167 23.576c43.101 0 78.166 35.065 78.166 78.167s-35.065 78.167-78.166 78.167S217 144.845 217 101.743s35.066-78.167 78.167-78.167zm-50.638 156.333h-70.058c15.421-10.024 27.705-24.483 35.029-41.556 7.325 17.073 19.608 31.531 35.029 41.556zM45.667 101.742c0-43.101 35.065-78.167 78.166-78.167S202 58.64 202 101.742s-35.065 78.167-78.167 78.167-78.166-35.066-78.166-78.167zM25.413 248.909l-8.4-35H57v35H25.413zM276.32 414.424H142.68v-15.516h133.64v15.516zM347 373.255a10.67 10.67 0 0 1-10.654 10.654H82.654A10.67 10.67 0 0 1 72 373.255V206.409v-.846a10.67 10.67 0 0 1 10.654-10.654h253.691a10.67 10.67 0 0 1 10.654 10.654v167.692zm15-121.744l35.667-11.064v97.925L362 327.307v-75.796zm61 94.719l-10.333-3.205V235.793L423 232.588V346.23zM160 101.742c0-19.942-16.225-36.167-36.167-36.167S87.667 81.8 87.667 101.742s16.224 36.167 36.166 36.167S160 121.684 160 101.742zm-57.333 0c0-11.671 9.495-21.167 21.166-21.167S145 90.07 145 101.742s-9.495 21.167-21.167 21.167-21.166-9.496-21.166-21.167zm192.5 28.167c15.531 0 28.166-12.635 28.166-28.167s-12.635-28.167-28.166-28.167S267 86.211 267 101.742s12.636 28.167 28.167 28.167zm0-41.333c7.26 0 13.166 5.906 13.166 13.167s-5.906 13.167-13.166 13.167S282 109.004 282 101.743s5.906-13.167 13.167-13.167z"/></svg>